<svg version="1" xmlns="http://www.w3.org/2000/svg" width="346.667" height="346.667" viewBox="0 0 260.000000 260.000000"><path d="M0 130v130h260V0H0v130zM148.2 28.4c25.4 4.9 43.7 20.6 53.9 46.3 5.6 14.3 7.2 25.3 7.2 50.3 0 25-1.6 36-7.2 50.3-12.9 32.4-40.6 49.9-74.8 47.3-38.8-3.1-64.9-31.1-70.3-75.6-2.2-18.4-.9-44.7 3.1-60.5 2.6-10.3 10.4-26.4 16.6-34 16.1-19.8 44.2-29.3 71.5-24.1z"/><path d="M120.1 50.6c-8.2 2.2-14.7 6.2-21.1 13.1-6.6 7-11 15.5-14.2 27-1.8 6.6-2.2 11.3-2.5 30.8-.4 20.3-.2 24.2 1.6 32.9C90 184.1 108 201 133.6 201c23.6 0 40.2-14.4 47.6-41.5 2-7.3 2.2-10.3 2.2-34.5s-.2-27.2-2.2-34.5c-7.6-27.6-24.4-41.7-49.6-41.4-3.3 0-8.5.7-11.5 1.5z"/></svg>